<?xml version="1.0" encoding="UTF-8"?><svg id="a" xmlns="http://www.w3.org/2000/svg" viewBox="0 0 80 80"><defs><style>.e{fill:silver;}.f{fill:gray;}</style></defs><g id="b"><path id="c" class="f" d="M33.42,50.16h36.22c3.61-.78,6.1-4.05,5.9-7.58-.18-3.24-2.6-6.04-5.9-6.74h-2.53c.69-3.04-.72-6.16-3.37-7.58-2.41-1.29-5.42-.96-7.58,.84,0-5.54-4.56-10.11-10.11-10.11s-10.11,4.56-10.11,10.11v2.53h-2.53c-4.75,.45-8.42,4.49-8.42,9.26s3.67,8.81,8.42,9.26h0Z"/><path id="d" class="e" d="M16,62H59c4.28-.93,7.24-4.81,7-9-.22-3.85-3.09-7.17-7-8h-3c.82-3.61-.85-7.31-4-9-2.86-1.53-6.44-1.14-9,1,0-6.58-5.42-12-12-12s-12,5.42-12,12v3h-3c-5.64,.54-10,5.33-10,11s4.36,10.46,10,11Z"/></g></svg>