<?xml version="1.0" encoding="UTF-8"?><svg id="a" xmlns="http://www.w3.org/2000/svg" viewBox="0 0 80 80"><defs><style>.g{stroke:#404040;stroke-linecap:round;stroke-miterlimit:10;stroke-width:3px;}.g,.h{fill:silver;}.i{fill:gray;}</style></defs><circle id="b" class="i" cx="52" cy="29" r="14"/><path id="c" class="h" d="M20.14,50H55.14c3.48-.75,5.89-3.92,5.7-7.33-.18-3.13-2.51-5.83-5.7-6.51h-2.44c.67-2.94-.69-5.95-3.26-7.33-2.32-1.24-5.24-.93-7.33,.81,0-5.36-4.41-9.77-9.77-9.77s-9.77,4.41-9.77,9.77v2.44h-2.44c-4.59,.44-8.14,4.34-8.14,8.95s3.55,8.52,8.14,8.95v.02Z"/><path id="d" class="g" d="M36,52l-2,4"/><path class="g" d="M43,54l1-2"/><path class="g" d="M30,64l1-2"/><path id="e" class="g" d="M24,60l-2,4"/><path id="f" class="g" d="M40,60l-2,4"/><path class="g" d="M27,54l1-2"/></svg>