<?xml version="1.0" encoding="UTF-8"?><svg xmlns="http://www.w3.org/2000/svg" viewBox="0 0 80 80"><defs><style>.e{fill:silver;}.f{fill:gray;}.h{fill:#404040;}</style></defs><g id="a"></g><g id="b"><path id="c" class="f" d="M33.14,42.71h34.53c3.44-.74,5.81-3.86,5.62-7.23-.17-3.09-2.48-5.76-5.62-6.43h-2.41c.66-2.9-.69-5.87-3.21-7.23-2.3-1.23-5.17-.92-7.23,.8,0-5.28-4.35-9.64-9.64-9.64s-9.64,4.35-9.64,9.64v2.41h-2.41c-4.53,.43-8.03,4.28-8.03,8.83s3.5,8.4,8.03,8.83h0Z"/><path id="d" class="e" d="M16.53,54H57.52c4.08-.89,6.9-4.59,6.67-8.58-.21-3.67-2.95-6.83-6.67-7.63h-2.86c.78-3.44-.81-6.97-3.81-8.58-2.73-1.46-6.14-1.09-8.58,.95,0-6.27-5.17-11.44-11.44-11.44s-11.44,5.17-11.44,11.44v2.86h-2.86c-5.38,.51-9.53,5.08-9.53,10.49s4.16,9.97,9.53,10.49Z"/><path class="h" d="M27,44l-6,13h5l-6,12c5-5.67,10-11.33,15-17h-5l5-8h-8Z"/></g></svg>