<?xml version="1.0" encoding="UTF-8"?><svg xmlns="http://www.w3.org/2000/svg" viewBox="0 0 80 80"><defs><style>.c,.d,.e,.f,.g,.h,.i,.j,.l{fill:none;}.c,.d,.e,.f,.g,.h,.i,.j,.l{stroke:#404040;stroke-linecap:round;}.c,.e,.f,.h,.i,.l{stroke-miterlimit:10;}.c,.g{stroke-width:2.36px;}.d,.g,.j{stroke-linejoin:round;}.d,.l{stroke-width:3px;}.e{stroke-width:2.58px;}.f,.j{stroke-width:1.69px;}.h{stroke-width:3.27px;}.i{stroke-width:1.84px;}</style></defs><g id="b"><g><polygon class="d" points="49.67 54.5 49.67 59.5 54 62 58.33 59.5 58.33 54.5 54 52 49.67 54.5"/><g><g><line class="d" x1="53.86" y1="62.5" x2="53.86" y2="75.5"/><line class="l" x1="53.86" y1="67" x2="47.86" y2="73"/><line class="h" x1="53.86" y1="67" x2="59.86" y2="73"/></g><g><line class="d" x1="49.13" y1="59.69" x2="37.88" y2="66.19"/><line class="l" x1="45.24" y1="61.94" x2="37.04" y2="59.75"/><line class="h" x1="45.24" y1="61.94" x2="43.04" y2="70.14"/></g><g><line class="d" x1="49.2" y1="54.19" x2="37.94" y2="47.69"/><line class="l" x1="45.31" y1="51.94" x2="43.11" y2="43.74"/><line class="h" x1="45.31" y1="51.94" x2="37.11" y2="54.14"/></g><g><line class="d" x1="54" y1="51.5" x2="54" y2="38.5"/><line class="l" x1="54" y1="47" x2="60" y2="41"/><line class="h" x1="54" y1="47" x2="48" y2="41"/></g><g><line class="d" x1="58.73" y1="54.31" x2="69.99" y2="47.81"/><line class="l" x1="62.63" y1="52.06" x2="70.82" y2="54.26"/><line class="h" x1="62.63" y1="52.06" x2="64.82" y2="43.86"/></g><g><line class="d" x1="58.66" y1="59.81" x2="69.92" y2="66.31"/><line class="l" x1="62.56" y1="62.06" x2="64.75" y2="70.26"/><line class="h" x1="62.56" y1="62.06" x2="70.75" y2="59.86"/></g></g></g><g><polygon class="g" points="19.8 32.79 19.8 36.72 23.21 38.69 26.62 36.72 26.62 32.79 23.21 30.82 19.8 32.79"/><g><g><line class="g" x1="23.11" y1="39.09" x2="23.11" y2="49.33"/><line class="c" x1="23.11" y1="42.63" x2="18.38" y2="47.36"/><line class="e" x1="23.11" y1="42.63" x2="27.83" y2="47.36"/></g><g><line class="g" x1="19.38" y1="36.88" x2="10.51" y2="42"/><line class="c" x1="16.31" y1="38.65" x2="9.85" y2="36.92"/><line class="e" x1="16.31" y1="38.65" x2="14.58" y2="45.1"/></g><g><line class="g" x1="19.43" y1="32.54" x2="10.57" y2="27.42"/><line class="c" x1="16.36" y1="30.77" x2="14.63" y2="24.31"/><line class="e" x1="16.36" y1="30.77" x2="9.91" y2="32.5"/></g><g><line class="g" x1="23.21" y1="30.42" x2="23.21" y2="20.18"/><line class="c" x1="23.21" y1="26.88" x2="27.94" y2="22.15"/><line class="e" x1="23.21" y1="26.88" x2="18.49" y2="22.15"/></g><g><line class="g" x1="26.94" y1="32.64" x2="35.81" y2="27.51"/><line class="c" x1="30.01" y1="30.86" x2="36.47" y2="32.59"/><line class="e" x1="30.01" y1="30.86" x2="31.74" y2="24.41"/></g><g><line class="g" x1="26.89" y1="36.97" x2="35.75" y2="42.09"/><line class="c" x1="29.96" y1="38.74" x2="31.69" y2="45.2"/><line class="e" x1="29.96" y1="38.74" x2="36.41" y2="37.01"/></g></g></g><g><polygon class="j" points="43.26 11.85 43.26 14.66 45.7 16.07 48.13 14.66 48.13 11.85 45.7 10.44 43.26 11.85"/><g><g><line class="j" x1="45.62" y1="16.35" x2="45.62" y2="23.67"/><line class="f" x1="45.62" y1="18.88" x2="42.24" y2="22.26"/><line class="i" x1="45.62" y1="18.88" x2="49" y2="22.26"/></g><g><line class="j" x1="42.96" y1="14.77" x2="36.62" y2="18.43"/><line class="f" x1="40.77" y1="16.04" x2="36.15" y2="14.8"/><line class="i" x1="40.77" y1="16.04" x2="39.53" y2="20.65"/></g><g><line class="j" x1="43" y1="11.67" x2="36.66" y2="8.02"/><line class="f" x1="40.8" y1="10.41" x2="39.57" y2="5.8"/><line class="i" x1="40.8" y1="10.41" x2="36.19" y2="11.64"/></g><g><line class="j" x1="45.7" y1="10.16" x2="45.7" y2="2.84"/><line class="f" x1="45.7" y1="7.63" x2="49.07" y2="4.25"/><line class="i" x1="45.7" y1="7.63" x2="42.32" y2="4.25"/></g><g><line class="j" x1="48.36" y1="11.74" x2="54.7" y2="8.08"/><line class="f" x1="50.55" y1="10.47" x2="55.17" y2="11.71"/><line class="i" x1="50.55" y1="10.47" x2="51.79" y2="5.86"/></g><g><line class="j" x1="48.32" y1="14.84" x2="54.66" y2="18.49"/><line class="f" x1="50.51" y1="16.1" x2="51.75" y2="20.71"/><line class="i" x1="50.51" y1="16.1" x2="55.13" y2="14.87"/></g></g></g></g></svg>