<?xml version="1.0" encoding="UTF-8"?>
<svg xmlns="http://www.w3.org/2000/svg" xmlns:xlink="http://www.w3.org/1999/xlink" viewBox="0 0 800 600"><defs><style>
			text{font-family:ArialMT, Arial, "Liberation Sans";dominant-baseline:hanging;}
			.gridline{stroke:black; stroke-width:2px;}
			.hourlygrid{stroke:black; stroke-width:1px;}
			.hourlyhour{font-size:20px; text-anchor:middle;}
			.hourlytemp{font-size:20px; text-anchor:end; dominant-baseline:middle;}
			.hourlygraph{stroke:black; stroke-width:2px;}
			.hourlyrain{fill:silver;}
			.bottomanchor{dominant-baseline:alphabetic;}
			.header1,.header2{text-decoration:underline;}
			.header1{font-size:32px;}
			.header2{font-size:24px;}
			.small{font-size:20px;}
			.medium{font-size:24px;}
			.alertshow{font-size:24px;fill:white;text-anchor:middle; dominant-baseline:middle;}
		</style></defs><g id="group-grid"><rect fill="white" x="0" y="0" width="800" height="600"/><line class="gridline" x1="480" y1="300" x2="800" y2="300"/><line class="gridline" y1="100" x2="800" y2="100"/><line class="gridline" y1="500" x2="800" y2="500"/><line class="gridline" x1="160" y1="500" x2="160" y2="600"/><line class="gridline" x1="320" y1="500" x2="320" y2="600"/><line class="gridline" x1="480" y1="100" x2="480" y2="600"/><line class="gridline" x1="640" y1="500" x2="640" y2="600"/></g><g id="group-date"><text id="text-date" x="400" y="50" font-size="40px" style="dominant-baseline:middle" text-anchor="middle">Saturday, September 10, 2022</text></g><g id="group-current"><text class="header1" x="20" y="120">Now</text><text id="text-current-updated" class="small" x="459" y="120" text-anchor="end">Updated at 22:38</text><text id="text-current-wind" class="small" x="20" y="168">Air quality: 4 - Poor (pm2.5)</text><text id="text-current-wind" class="small" x="20" y="204">Wind: 2 - Light breeze</text><text id="text-current-uvi" class="small" x="20" y="240">UV index: 0 - Low</text><text id="text-current-humidity" class="small" x="20" y="276">Humidity: 43%</text><text id="text-current-feels_like" class="small" x="20" y="312">Feels like: 17°</text><text id="text-current-temp" class="bottomanchor" x="20" y="435" style="font-size:100px">18°</text><text id="text-current-weather" class="bottomanchor" x="20" y="479" style="font-size:28px">smoke</text><image x="259" y="200" width="200" height="200" href="50n.svg" xlink:href="50n.svg"/></g><g id="group-precipitation"><text class="header2" x="500" y="120">Precipitation</text><text id="text-precipitation-1hr" class="medium" x="500" y="200">1 hour: 0%</text><text id="text-precipitation-today" class="medium" x="500" y="240">Today: 0%</text><image x="652" y="136" width="128" height="128" opacity="0.000000" href="umbrella.svg" xlink:href="umbrella.svg"/></g><g id="group-hourly"><text class="header2" x="500" y="320">Hourly</text><polygon class="hourlyrain" points="550,460 570,460 590,460 610,460 630,460 650,460 670,460 690,460 710,460 730,460 750,460 770,460 770,460 550,460"/><line class="hourlygrid" x1="550" y1="350" x2="550" y2="470"/><line class="hourlygrid" x1="590" y1="350" x2="590" y2="470"/><line class="hourlygrid" x1="650" y1="350" x2="650" y2="470"/><line class="hourlygrid" x1="710" y1="350" x2="710" y2="470"/><line class="hourlygrid" x1="770" y1="350" x2="770" y2="470"/><line class="hourlygrid" x1="540" y1="360" x2="780" y2="360"/><line class="hourlygrid" x1="540" y1="460" x2="780" y2="460"/><line class="hourlygrid" x1="540" y1="393" x2="780" y2="393"/><line class="hourlygrid" x1="540" y1="426" x2="780" y2="426"/><text class="hourlyhour" x="590" y="474">0</text><text class="hourlyhour" x="650" y="474">3</text><text class="hourlyhour" x="710" y="474">6</text><text class="hourlyhour" x="770" y="474">9</text><text class="hourlytemp" x="536" y="360">25°</text><text class="hourlytemp" x="536" y="460">10°</text><text class="hourlytemp" x="536" y="393">20°</text><text class="hourlytemp" x="536" y="426">15°</text><line class="hourlygraph" x1="550" y1="405.600000" x2="570" y2="408.600000"/><line class="hourlygraph" x1="570" y1="408.600000" x2="590" y2="408.066667"/><line class="hourlygraph" x1="590" y1="408.066667" x2="610" y2="410.333333"/><line class="hourlygraph" x1="610" y1="410.333333" x2="630" y2="414.066667"/><line class="hourlygraph" x1="630" y1="414.066667" x2="650" y2="419.000000"/><line class="hourlygraph" x1="650" y1="419.000000" x2="670" y2="425.066667"/><line class="hourlygraph" x1="670" y1="425.066667" x2="690" y2="427.000000"/><line class="hourlygraph" x1="690" y1="427.000000" x2="710" y2="428.866667"/><line class="hourlygraph" x1="710" y1="428.866667" x2="730" y2="431.800000"/><line class="hourlygraph" x1="730" y1="431.800000" x2="750" y2="423.866667"/><line class="hourlygraph" x1="750" y1="423.866667" x2="770" y2="393.133333"/></g><g id="group-daily"><text id="text-day0-dow" class="medium" x="20" y="520">Sat</text><text id="text-day0-temps" class="small bottomanchor" x="20" y="580">30°/14°</text><image id="text-day0-icon" x="86" y="518" width="64" height="64" href="01d.svg" xlink:href="01d.svg"/><text id="text-day1-dow" class="medium" x="180" y="520">Sun</text><text id="text-day1-temps" class="small bottomanchor" x="180" y="580">33°/17°</text><image id="text-day1-icon" x="246" y="518" width="64" height="64" href="03d.svg" xlink:href="03d.svg"/><text id="text-day2-dow" class="medium" x="340" y="520">Mon</text><text id="text-day2-temps" class="small bottomanchor" x="340" y="580">31°/19°</text><image id="text-day2-icon" x="406" y="518" width="64" height="64" href="04d.svg" xlink:href="04d.svg"/><text id="text-day3-dow" class="medium" x="500" y="520">Tue</text><text id="text-day3-temps" class="small bottomanchor" x="500" y="580">30°/17°</text><image id="text-day3-icon" x="566" y="518" width="64" height="64" href="10d.svg" xlink:href="10d.svg"/><text id="text-day4-dow" class="medium" x="660" y="520">Wed</text><text id="text-day4-temps" class="small bottomanchor" x="660" y="580">31°/16°</text><image id="text-day4-icon" x="726" y="518" width="64" height="64" href="10d.svg" xlink:href="10d.svg"/></g><g id="group-alerts"><rect x="480" y="500" width="320" height="100" style="fill:black"/><text class="alertshow" x="640" y="550"><tspan x="640" y="550" dy="-0.7em">Air Quality Alert</tspan><tspan x="640" y="550" dy="0.7em">(Ends at Mon 15:00)</tspan></text></g></svg>
